# cube.obj
#
 
g cube
 
v  -1.0  -1.0  -1.0 #1 
v  -1.0  -1.0  1.0 #2
v  -1.0  1.0  -1.0 #3
v  -1.0  1.0  1.0 #4
v  1.0  -1.0  -1.0 #5
v  1.0  -1.0  1.0 #6
v  1.0  1.0  -1.0 #7
v  1.0  1.0  1.0 #8

vn  0.0  0.0  1.0
vn  0.0  0.0 -1.0
vn  0.0  1.0  0.0
vn  0.0 -1.0  0.0
vn  1.0  0.0  0.0
vn -1.0  0.0  0.0

t 1 0
t 0 1
t 0 0
t 1 1
 
f  1/1/2  7/2/2  5/3/2
f  1/1/2  3/4/2  7/2/2
f  1/1/6  4/2/6  3/3/6
f  1/1/6  2/4/6  4/2/6
f  3/1/3  8/2/3  7/3/3
f  3/1/3  4/4/3  8/2/3
f  5/1/5  7/4/5  8/2/5
f  5/1/5  8/2/5  6/3/5
f  1/1/4  5/4/4  6/2/4
f  1/1/4  6/2/4  2/3/4
f  2/1/1  6/4/1  8/2/1
f  2/1/1  8/2/1  4/3/1